<svg xmlns="http://www.w3.org/2000/svg" viewBox="0 0 512 512" width="512" height="512">
  <defs>
    <linearGradient id="bg" x1="0" y1="0" x2="1" y2="1">
      <stop offset="0" stop-color="#1a1a1a"/>
      <stop offset="1" stop-color="#0a0a0a"/>
    </linearGradient>
    <linearGradient id="bolt" x1="0" y1="0" x2="0" y2="1">
      <stop offset="0" stop-color="#fde047"/>
      <stop offset="1" stop-color="#f97316"/>
    </linearGradient>
  </defs>
  <rect width="512" height="512" rx="112" fill="url(#bg)"/>
  <!-- ghost-like sprite body -->
  <path d="M256 96c-79 0-128 54-128 132v152c0 14 17 22 28 13l28-23 30 25c7 6 17 6 24 0l30-25 30 25c7 6 17 6 24 0l30-25 28 23c11 9 28 1 28-13V228c0-78-49-132-152-132z"
        fill="url(#bolt)" opacity="0.18"/>
  <!-- lightning bolt -->
  <path d="M286 120 168 296h74l-26 110 142-196h-78z" fill="url(#bolt)"/>
  <!-- eyes -->
  <circle cx="212" cy="232" r="20" fill="#0a0a0a"/>
  <circle cx="300" cy="232" r="20" fill="#0a0a0a"/>
</svg>
